<svg width="154" height="24" viewBox="0 0 154 24" fill="none" xmlns="http://www.w3.org/2000/svg">
<g clip-path="url(#clip0_1213_11267)">
<path d="M40.1725 19.8894C39.4917 20.404 38.5764 20.6609 37.4269 20.6609C36.383 20.6609 35.4828 20.4191 34.7265 19.9349C33.9698 19.4511 33.3839 18.7661 32.9679 17.8811C32.5516 16.9962 32.3441 15.9336 32.3441 14.693C32.3441 13.4525 32.5516 12.3823 32.9679 11.4822C33.3839 10.5824 33.9698 9.89364 34.7265 9.417C35.4828 8.94037 36.383 8.70205 37.4269 8.70205C38.5764 8.70205 39.4955 8.96693 40.1839 9.49632C40.8719 10.0261 41.3144 10.752 41.5114 11.675H44.2797C43.9621 10.0261 43.2134 8.74417 42.0332 7.82846C40.8533 6.91314 39.3251 6.45547 37.4493 6.45547C35.8756 6.45547 34.5144 6.80347 33.3649 7.49945C32.215 8.19543 31.3339 9.15971 30.7214 10.3927C30.1085 11.626 29.8022 13.059 29.8022 14.6927C29.8022 16.3264 30.1085 17.7373 30.7214 18.9703C31.3339 20.2036 32.215 21.1641 33.3649 21.8521C34.5144 22.5405 35.876 22.8847 37.4493 22.8847C39.3248 22.8847 40.8568 22.4308 42.0445 21.5231C43.232 20.6153 43.9849 19.3372 44.3025 17.688H41.5341C41.3072 18.6412 40.8533 19.3752 40.1725 19.889V19.8894Z" fill="#1C1C1C"/>
<path d="M54.3662 11.8226C53.4812 11.3311 52.4714 11.0852 51.3367 11.0852C50.2021 11.0852 49.2298 11.3311 48.3301 11.8226C47.4299 12.3144 46.7187 13.0024 46.1969 13.8874C45.6752 14.7723 45.4141 15.8049 45.4141 16.9848C45.4141 18.1646 45.6752 19.1786 46.1969 20.0708C46.7187 20.9637 47.4257 21.6555 48.3187 22.147C49.2112 22.6384 50.2169 22.8843 51.3367 22.8843C52.4566 22.8843 53.4619 22.6384 54.3548 22.147C55.2474 21.6555 55.9547 20.9633 56.4765 20.0708C56.9983 19.1782 57.2594 18.1498 57.2594 16.9848C57.2594 15.8197 56.9983 14.7723 56.4765 13.8874C55.9547 13.0024 55.2512 12.314 54.3662 11.8226ZM54.2186 19.0613C53.9157 19.6139 53.5112 20.0298 53.0046 20.3095C52.4976 20.5895 51.9416 20.7292 51.3367 20.7292C50.7318 20.7292 50.1755 20.5895 49.6689 20.3095C49.1619 20.0298 48.7574 19.6139 48.4549 19.0613C48.1521 18.5092 48.001 17.817 48.001 16.9851C48.001 16.1533 48.1559 15.4611 48.4663 14.909C48.7763 14.3568 49.1847 13.9409 49.6917 13.6608C50.1983 13.3811 50.7542 13.2411 51.3595 13.2411C51.9648 13.2411 52.4976 13.3811 53.0046 13.6608C53.5112 13.9409 53.9157 14.3568 54.2186 14.909C54.521 15.4615 54.6724 16.1533 54.6724 16.9851C54.6724 17.817 54.521 18.5096 54.2186 19.0613Z" fill="#1C1C1C"/>
<path d="M65.2699 11.0849C64.4377 11.0849 63.6966 11.2704 63.0461 11.6408C62.3957 12.0116 61.8811 12.5144 61.5031 13.1497V11.3569H59.0068V22.6122H61.5031V16.803C61.5031 15.6535 61.7904 14.7685 62.3653 14.1481C62.9399 13.528 63.6662 13.2176 64.5436 13.2176C65.421 13.2176 66.0752 13.4863 66.5063 14.0232C66.9374 14.5606 67.1529 15.3587 67.1529 16.4174V22.6122H69.6492V16.1677C69.6492 14.4885 69.2633 13.2218 68.4918 12.3668C67.7203 11.5122 66.6459 11.0845 65.2695 11.0845L65.2699 11.0849Z" fill="#1C1C1C"/>
<path d="M78.181 11.0849C77.3488 11.0849 76.6077 11.2704 75.9572 11.6408C75.3068 12.0116 74.7922 12.5144 74.4142 13.1497V11.3569H71.918V22.6122H74.4142V16.803C74.4142 15.6535 74.7015 14.7685 75.2764 14.1481C75.851 13.528 76.5773 13.2176 77.4547 13.2176C78.3321 13.2176 78.9863 13.4863 79.4174 14.0232C79.8485 14.5606 80.0641 15.3587 80.0641 16.4174V22.6122H82.5603V16.1677C82.5603 14.4885 82.1744 13.2218 81.4029 12.3668C80.6314 11.5122 79.5571 11.0845 78.1807 11.0845L78.181 11.0849Z" fill="#1C1C1C"/>
<path d="M92.9422 11.8112C92.1176 11.3273 91.1529 11.0852 90.049 11.0852C88.9451 11.0852 87.9159 11.3349 87.0537 11.834C86.1915 12.333 85.5179 13.0332 85.0341 13.9329C84.5498 14.8331 84.3081 15.8657 84.3081 17.0303C84.3081 18.195 84.5536 19.2165 85.0454 20.0939C85.5369 20.9713 86.2101 21.6563 87.0651 22.1477C87.9197 22.6391 88.9067 22.8851 90.0262 22.8851C90.934 22.8851 91.7396 22.7223 92.4428 22.397C93.146 22.0718 93.7361 21.6255 94.2128 21.0582C94.6894 20.4909 95.0256 19.8518 95.2226 19.1406H92.7039C92.4918 19.6552 92.1593 20.0636 91.7055 20.366C91.2516 20.6688 90.6919 20.8199 90.0262 20.8199C89.4361 20.8199 88.8954 20.6836 88.4039 20.4116C87.9121 20.1395 87.5152 19.7345 87.2127 19.1976C86.9531 18.7376 86.8055 18.1965 86.7683 17.5753H95.495C95.525 17.3635 95.5406 17.1707 95.5406 16.9965V16.5085C95.5406 15.4953 95.3136 14.5796 94.8598 13.7629C94.4059 12.9459 93.7665 12.2958 92.9422 11.8112ZM86.8074 15.8956C86.8738 15.4277 87.0085 15.0228 87.2123 14.6817C87.5148 14.175 87.9159 13.7891 88.4149 13.5242C88.9143 13.2597 89.4589 13.1273 90.0486 13.1273C90.8657 13.1273 91.5575 13.377 92.1248 13.876C92.6921 14.3754 92.9984 15.0486 93.0439 15.8956H86.807H86.8074Z" fill="#1C1C1C"/>
<path d="M101.111 13.6605C101.602 13.3656 102.128 13.218 102.688 13.218C103.384 13.218 103.981 13.388 104.481 13.7284C104.98 14.0688 105.305 14.5416 105.456 15.1465H108.043C107.786 13.8912 107.181 12.9 106.228 12.174C105.275 11.448 104.102 11.0849 102.711 11.0849C101.591 11.0849 100.597 11.3346 99.7268 11.8336C98.8567 12.333 98.1725 13.0248 97.673 13.9098C97.1736 14.7948 96.9243 15.8197 96.9243 16.9844C96.9243 18.1491 97.174 19.1741 97.673 20.059C98.1725 20.944 98.8567 21.6362 99.7268 22.1352C100.597 22.6346 101.591 22.8839 102.711 22.8839C104.102 22.8839 105.278 22.5094 106.239 21.7606C107.2 21.0119 107.801 20.0325 108.043 18.8219H105.456C105.305 19.4423 104.98 19.919 104.481 20.2514C103.981 20.5842 103.384 20.7508 102.688 20.7508C102.128 20.7508 101.602 20.6074 101.111 20.3197C100.619 20.0325 100.226 19.6048 99.931 19.0374C99.6361 18.4701 99.4885 17.7859 99.4885 16.9836C99.4885 16.1814 99.6361 15.4824 99.931 14.9298C100.226 14.3777 100.619 13.9542 101.111 13.6589V13.6605Z" fill="#1C1C1C"/>
<path d="M113.149 8.47549H110.653V11.3573H108.724V13.4677H110.653V19.3676C110.653 20.2605 110.774 20.9409 111.016 21.41C111.257 21.879 111.621 22.1967 112.105 22.3633C112.589 22.5299 113.179 22.613 113.875 22.613H116.053V20.4799H114.692C114.268 20.4799 113.947 20.4499 113.728 20.3892C113.508 20.3288 113.357 20.1964 113.274 19.9922C113.19 19.7881 113.149 19.4666 113.149 19.0279V13.4684H116.167V11.3581H113.149V8.47625V8.47549Z" fill="#1C1C1C"/>
<path d="M125.391 11.8112C124.567 11.3273 123.602 11.0852 122.498 11.0852C121.394 11.0852 120.365 11.3349 119.503 11.834C118.641 12.333 117.967 13.0332 117.483 13.9329C116.999 14.8331 116.757 15.8657 116.757 17.0303C116.757 18.195 117.003 19.2165 117.495 20.0939C117.986 20.9713 118.659 21.6563 119.514 22.1477C120.369 22.6391 121.356 22.8851 122.475 22.8851C123.383 22.8851 124.189 22.7223 124.892 22.397C125.595 22.0718 126.185 21.6255 126.662 21.0582C127.139 20.4909 127.475 19.8518 127.672 19.1406H125.153C124.941 19.6552 124.609 20.0636 124.155 20.366C123.701 20.6688 123.141 20.8199 122.475 20.8199C121.885 20.8199 121.345 20.6836 120.853 20.4116C120.361 20.1395 119.964 19.7345 119.662 19.1976C119.402 18.7376 119.255 18.1965 119.218 17.5753H127.944C127.974 17.3635 127.99 17.1707 127.99 16.9965V16.5085C127.99 15.4953 127.763 14.5796 127.309 13.7629C126.855 12.9459 126.216 12.2958 125.391 11.8112ZM119.257 15.8956C119.323 15.4277 119.458 15.0228 119.662 14.6817C119.964 14.175 120.365 13.7891 120.864 13.5242C121.364 13.2597 121.908 13.1273 122.498 13.1273C123.315 13.1273 124.007 13.377 124.574 13.876C125.141 14.3754 125.448 15.0486 125.493 15.8956H119.256H119.257Z" fill="#1C1C1C"/>
<path d="M138.031 11.8112C137.206 11.3273 136.242 11.0852 135.138 11.0852C134.034 11.0852 133.005 11.3349 132.143 11.834C131.28 12.333 130.607 13.0332 130.123 13.9329C129.639 14.8331 129.397 15.8657 129.397 17.0303C129.397 18.195 129.642 19.2165 130.134 20.0939C130.626 20.9713 131.299 21.6563 132.154 22.1477C133.009 22.6391 133.996 22.8851 135.115 22.8851C136.023 22.8851 136.828 22.7223 137.532 22.397C138.235 22.0718 138.825 21.6255 139.302 21.0582C139.778 20.4909 140.114 19.8518 140.311 19.1406H137.793C137.581 19.6552 137.248 20.0636 136.794 20.366C136.34 20.6688 135.781 20.8199 135.115 20.8199C134.525 20.8199 133.984 20.6836 133.493 20.4116C133.001 20.1395 132.604 19.7345 132.302 19.1976C132.042 18.7376 131.894 18.1965 131.857 17.5753H140.584C140.614 17.3635 140.629 17.1707 140.629 16.9965V16.5085C140.629 15.4953 140.403 14.5796 139.949 13.7629C139.495 12.9459 138.855 12.2958 138.031 11.8112ZM131.896 15.8956C131.962 15.4277 132.097 15.0228 132.301 14.6817C132.603 14.175 133.004 13.7891 133.503 13.5242C134.003 13.2597 134.547 13.1273 135.137 13.1273C135.954 13.1273 136.646 13.377 137.213 13.876C137.781 14.3754 138.087 15.0486 138.132 15.8956H131.896H131.896Z" fill="#1C1C1C"/>
<path d="M151.476 6.27408V13.0362C151.097 12.4313 150.576 11.9546 149.91 11.6067C149.244 11.2587 148.472 11.0849 147.595 11.0849C146.506 11.0849 145.542 11.3384 144.702 11.845C143.863 12.352 143.204 13.0476 142.728 13.9325C142.252 14.8175 142.013 15.8273 142.013 16.962C142.013 18.0967 142.252 19.0917 142.728 19.9915C143.205 20.8916 143.863 21.599 144.702 22.1132C145.542 22.6274 146.498 22.8847 147.573 22.8847C148.556 22.8847 149.365 22.6805 150.001 22.2718C150.636 21.8635 151.127 21.402 151.476 20.8874V22.6122H153.972V6.27408H151.476ZM151.056 18.9137C150.761 19.4735 150.352 19.9121 149.831 20.2298C149.309 20.5474 148.707 20.7064 148.027 20.7064C147.346 20.7064 146.767 20.5474 146.245 20.2298C145.723 19.9121 145.311 19.4735 145.008 18.9137C144.706 18.3543 144.555 17.7035 144.555 16.9624C144.555 16.2212 144.706 15.5936 145.008 15.0334C145.311 14.4741 145.723 14.0388 146.245 13.7288C146.767 13.4187 147.361 13.2635 148.027 13.2635C148.693 13.2635 149.309 13.4187 149.831 13.7288C150.352 14.0392 150.761 14.4741 151.056 15.0334C151.351 15.5932 151.499 16.244 151.499 16.9851C151.499 17.7263 151.351 18.3543 151.056 18.9141V18.9137Z" fill="#1C1C1C"/>
<path d="M17.9874 0H11.5865C11.3478 0 11.1543 0.193539 11.1543 0.432238V4.22826C11.1543 4.75613 10.7262 5.18419 10.1984 5.18419H4.32162C1.93463 5.18382 0 7.11883 0 9.50543V19.6784C0 22.065 1.93463 24 4.32162 24H10.7225C10.9612 24 11.1547 23.8065 11.1547 23.5678V19.7717C11.1547 19.2439 11.5828 18.8158 12.1106 18.8158H17.9878C20.3744 18.8158 22.3094 16.8812 22.3094 14.4942V4.32162C22.3094 1.93501 20.3747 0 17.9878 0H17.9874ZM17.1233 13.6301H11.5865C11.3478 13.6301 11.1543 13.8236 11.1543 14.0623V17.8603C11.1543 18.3691 10.757 18.7847 10.2553 18.8143H5.18533V10.3699H10.7221C10.9608 10.3699 11.1543 10.1764 11.1543 9.93767V6.13975C11.1543 5.63085 11.5516 5.21531 12.0533 5.18571H17.1233V13.6301Z" fill="#003DD6"/>
</g>
<defs>
<clipPath id="clip0_1213_11267">
<rect width="153.972" height="24" fill="white"/>
</clipPath>
</defs>
</svg>
